<svg width="400" height="400" viewBox="0 0 400 400" fill="none" xmlns="http://www.w3.org/2000/svg">
<path d="M261.338 179.167C275.424 179.168 286.843 190.587 286.843 204.673C286.843 218.76 275.424 230.179 261.338 230.179H164.077L118.042 389.707H62.3936L111.163 230.179H38.7422C24.6559 230.179 13.2364 218.76 13.2363 204.673C13.2363 190.587 24.6559 179.167 38.7422 179.167H261.338Z" fill="#839B9A"/>
<path d="M168 31.7905C171.509 16.8506 186.439 7.5618 201.392 11.0142C216.583 14.5213 225.94 29.809 222.153 44.9321L213.942 77.7212H261.844V77.77C262.827 77.7457 263.814 77.7339 264.803 77.7339C332.16 77.7339 386.763 134.417 386.764 204.337C386.764 273.133 333.905 329.112 268.047 330.897V330.933H266.222C265.75 330.939 265.276 330.942 264.803 330.942C264.432 330.942 264.059 330.937 263.688 330.933H186.431L186.432 330.929H186.574L202.591 280.664H215.042C216.651 280.18 218.358 279.919 220.125 279.918H277.625C278.293 279.918 278.952 279.957 279.6 280.029C312.825 269.238 336.682 239.634 336.682 204.801C336.682 166.428 307.728 134.399 269.193 126.88H257.585C257.456 126.876 257.327 126.874 257.197 126.874H155.178C155.066 126.874 154.953 126.875 154.841 126.878H144.985L156.936 77.7212H157.209L168 31.7905Z" fill="#839B9A"/>
</svg>
