<svg width="400" height="400" viewBox="0 0 400 400" fill="none" xmlns="http://www.w3.org/2000/svg">
<path d="M261.338 179.167C275.424 179.167 286.843 190.587 286.843 204.673C286.843 218.759 275.424 230.179 261.338 230.179H164.077L118.042 389.706H62.3936L111.163 230.179H38.7422C24.6559 230.179 13.2364 218.759 13.2363 204.673C13.2363 190.587 24.6559 179.167 38.7422 179.167H261.338Z" fill="#1A262C"/>
<path d="M168 31.79C171.509 16.8502 186.439 7.56138 201.392 11.0137C216.583 14.5209 225.94 29.8094 222.153 44.9326L213.942 77.7207H261.844V77.7695C262.827 77.7452 263.814 77.7334 264.803 77.7334C332.159 77.7334 386.763 134.416 386.764 204.337C386.764 273.132 333.905 329.111 268.047 330.896V330.933H266.222C265.75 330.938 265.276 330.941 264.803 330.941C264.432 330.941 264.059 330.936 263.688 330.933H186.431L186.432 330.929H186.574L202.591 280.663H215.042C216.651 280.179 218.358 279.918 220.125 279.918H277.625C278.293 279.918 278.952 279.956 279.6 280.028C312.825 269.237 336.682 239.633 336.682 204.801C336.681 166.428 307.728 134.399 269.193 126.88H257.585C257.456 126.876 257.327 126.873 257.197 126.873H155.178C155.066 126.873 154.953 126.875 154.841 126.878H144.985L156.936 77.7207H157.209L168 31.79Z" fill="#1A262C"/>
</svg>
